<?xml version="1.0" encoding="UTF-8"?>
<svg version="1.1" xmlns="http://www.w3.org/2000/svg" width="452" height="331">
<path d="M0 0 C23.76 0.33 47.52 0.66 72 1 C72 25.09 72 49.18 72 74 C68.36066873 72.18033437 66.77865751 70.77865751 64 68 C61.86690808 66.76487921 61.86690808 66.76487921 60 66 C59.67 66.66 59.34 67.32 59 68 C55.64651391 68.99080271 53.77588565 69.36490288 50.56640625 67.85546875 C47.59248401 65.70537276 45.82975657 63.47644422 43.6875 60.5 C42.91148437 59.43265625 42.13546875 58.3653125 41.3359375 57.265625 C40.55723866 56.17712125 39.77859167 55.08858041 39 54 C37.60510353 52.0826514 36.20932145 50.16594667 34.8125 48.25 C34.15894531 47.34765625 33.50539062 46.4453125 32.83203125 45.515625 C31.23962468 43.32903688 29.62855521 41.15970125 28 39 C24.27978495 34.03971327 20.64687533 29.01445358 17 24 C16.67 38.52 16.34 53.04 16 68 C13.03 68 10.06 68 7 68 C7 48.2 7 28.4 7 8 C5.68 7.67 4.36 7.34 3 7 C0.75 4.9375 0.75 4.9375 -1 3 C-0.67 2.01 -0.34 1.02 0 0 Z " fill="#FECC69" transform="translate(196,127)"/>
<path d="M0 0 C5.11209874 0.31155826 10.01447051 0.79039612 15 2 C17.4375 4.9375 17.4375 4.9375 18.140625 6.828125 C19.25407276 9.64211115 20.8795669 11.76290755 22.6875 14.1875 C23.37199219 15.11820313 24.05648437 16.04890625 24.76171875 17.0078125 C26.33798663 19.11500482 27.9221902 21.2136451 29.51953125 23.3046875 C29.93307861 23.84843018 30.34662598 24.39217285 30.77270508 24.95239258 C31.94783748 26.49406717 33.13001004 28.03036778 34.3125 29.56640625 C36 32 36 32 36 34 C36.66 34 37.32 34 38 34 C42.95 40.93 42.95 40.93 48 48 C48.33 33.15 48.66 18.3 49 3 C51.31 3 53.62 3 56 3 C56 22.47 56 41.94 56 62 C47 62 47 62 44.21484375 59.54296875 C43.42569423 58.44546389 42.66749057 57.32521159 41.9375 56.1875 C41.52467773 55.5994458 41.11185547 55.0113916 40.68652344 54.40551758 C39.84194182 53.19927429 39.00930843 51.98457499 38.18896484 50.76171875 C36.44881745 48.18329912 34.59588333 45.69086939 32.75 43.1875 C32.10546875 42.29417969 31.4609375 41.40085938 30.796875 40.48046875 C29.21939158 38.30285577 27.61957166 36.14636782 26 34 C22.27978495 29.03971327 18.64687533 24.01445358 15 19 C14.67 33.52 14.34 48.04 14 63 C11.03 63 8.06 63 5 63 C5 43.2 5 23.4 5 3 C3.68 2.67 2.36 2.34 1 2 C0.67 1.34 0.34 0.68 0 0 Z " fill="#100E0A" transform="translate(198,132)"/>
<path d="M0 0 C3.3 0 6.6 0 10 0 C10 23.1 10 46.2 10 70 C6.61788438 68.30894219 5.47221474 67.47221474 3 65 C0.90010348 63.82425289 0.90010348 63.82425289 -1 63 C0 61 0 61 1 60 C1.06426163 58.12730895 1.05692927 56.25212474 1.02172852 54.37866211 C1.00163223 53.17749252 0.98153595 51.97632294 0.96083069 50.73875427 C0.93379562 49.4314888 0.90676056 48.12422333 0.87890625 46.77734375 C0.85461463 45.43356607 0.8307706 44.08978022 0.80735779 42.74598694 C0.74442137 39.2031019 0.67538208 35.66036071 0.60510254 32.11761475 C0.53450514 28.50490896 0.46963683 24.8921009 0.40429688 21.27929688 C0.27516148 14.18608681 0.13958327 7.09301277 0 0 Z " fill="#FBCA68" transform="translate(257,130)"/>
<path d="M0 0 C4.29 0 8.58 0 13 0 C13 18.81 13 37.62 13 57 C12.34 56.67 11.68 56.34 11 56 C11 37.85 11 19.7 11 1 C8.36 1 5.72 1 3 1 C3 16.51 3 32.02 3 48 C-0.11053158 44.88946842 -2.73885366 42.2506787 -5.3125 38.8125 C-5.82425781 38.13832031 -6.33601562 37.46414062 -6.86328125 36.76953125 C-8 35 -8 35 -8 33 C-8.66 33 -9.32 33 -10 33 C-10.33 31.02 -10.66 29.04 -11 27 C-9.62437146 28.28965176 -8.29233607 29.62689293 -7 31 C-7 31.66 -7 32.32 -7 33 C-6.34 33 -5.68 33 -5 33 C-3.95107762 34.63631892 -2.95093297 36.30485863 -2 38 C-1.67 38.33 -1.34 38.66 -1 39 C-0.67 26.13 -0.34 13.26 0 0 Z " fill="#E9DBB5" transform="translate(244,133)"/>
<path d="M0 0 C2.14576637 -0.02685938 4.29162645 -0.04633088 6.4375 -0.0625 C7.63246094 -0.07410156 8.82742187 -0.08570313 10.05859375 -0.09765625 C13 0 13 0 14 1 C14.11806008 2.79923898 14.16735397 4.60303311 14.18945312 6.40600586 C14.21452942 8.13801491 14.21452942 8.13801491 14.2401123 9.90501404 C14.25368774 11.16225784 14.26726318 12.41950165 14.28125 13.71484375 C14.30937217 15.6720193 14.3374996 17.6291948 14.36594391 19.5863657 C14.41474792 23.03669143 14.45715467 26.48709598 14.5 29.9375 C14.55108189 34.04737863 14.60326756 38.15721934 14.66296387 42.26698303 C14.6997629 44.82994128 14.73216758 47.39296691 14.7598877 49.95603943 C14.78496399 51.69277672 14.78496399 51.69277672 14.81054688 53.46459961 C14.82307495 54.48750595 14.83560303 55.51041229 14.84851074 56.5643158 C14.84123831 59.0081673 14.84123831 59.0081673 16 61 C14.35 60.67 12.7 60.34 11 60 C11 61.32 11 62.64 11 64 C8.1875 64.625 8.1875 64.625 5 65 C4.01 64.34 3.02 63.68 2 63 C4.64 63 7.28 63 10 63 C10 43.53 10 24.06 10 4 C7.69 4 5.38 4 3 4 C3 3.67 3 3.34 3 3 C5.64 3 8.28 3 11 3 C11.33 21.15 11.66 39.3 12 58 C12.33 39.52 12.66 21.04 13 2 C8.71 2 4.42 2 0 2 C0 1.34 0 0.68 0 0 Z " fill="#B8A173" transform="translate(244,131)"/>
<path d="M0 0 C23.76 0.33 47.52 0.66 72 1 C72 25.09 72 49.18 72 74 C71.34 73.67 70.68 73.34 70 73 C70.33 49.57 70.66 26.14 71 2 C35.36 2.495 35.36 2.495 -1 3 C-0.67 2.01 -0.34 1.02 0 0 Z " fill="#E1BF78" transform="translate(196,127)"/>
<path d="M0 0 C1.22133636 0.00444122 2.44267273 0.00888245 3.70101929 0.01345825 C4.37430771 0.0131662 5.04759613 0.01287415 5.74128723 0.01257324 C7.97067067 0.01396856 10.19972145 0.02953887 12.42904663 0.04519653 C13.97318336 0.04892595 15.51732246 0.05177326 17.0614624 0.05377197 C21.12873856 0.06141404 25.19587224 0.08106736 29.26309204 0.10317993 C33.41214063 0.12362607 37.5612122 0.13277105 41.71029663 0.14285278 C49.85359124 0.16431279 57.99676997 0.19845555 66.13998413 0.24050903 C66.13998413 0.57050903 66.13998413 0.90050903 66.13998413 1.24050903 C48.31998413 1.57050903 30.49998413 1.90050903 12.13998413 2.24050903 C13.12998413 3.23050903 14.11998413 4.22050903 15.13998413 5.24050903 C15.46998413 6.23050903 15.79998413 7.22050903 16.13998413 8.24050903 C16.79998413 8.57050903 17.45998413 8.90050903 18.13998413 9.24050903 C18.76498413 11.30300903 18.76498413 11.30300903 19.13998413 13.24050903 C16.38540695 12.86056735 15.31977839 12.43314574 13.38998413 10.36550903 C12.13998413 8.24050903 12.13998413 8.24050903 12.13998413 5.24050903 C11.49932007 5.27531372 10.85865601 5.31011841 10.19857788 5.34597778 C4.30633647 5.53038474 0.37333858 4.97095483 -4.86001587 2.24050903 C-2.86001587 0.24050903 -2.86001587 0.24050903 0 0 Z " fill="#F6CC77" transform="translate(200.86001586914063,128.75949096679688)"/>
<path d="M0 0 C0.33 0 0.66 0 1 0 C1 9.57 1 19.14 1 29 C0.34 29 -0.32 29 -1 29 C-2.44526736 27.26451831 -3.8087222 25.46024037 -5.125 23.625 C-5.84945312 22.62726563 -6.57390625 21.62953125 -7.3203125 20.6015625 C-9 18 -9 18 -9 16 C-9.66 16 -10.32 16 -11 16 C-11.33 14.02 -11.66 12.04 -12 10 C-10.62437146 11.28965176 -9.29233607 12.62689293 -8 14 C-8 14.66 -8 15.32 -8 16 C-7.34 16 -6.68 16 -6 16 C-4.94228261 17.63064764 -3.94726954 19.30280873 -3 21 C-2.34 21.99 -1.68 22.98 -1 24 C-0.67 16.08 -0.34 8.16 0 0 Z " fill="#F9F6DF" transform="translate(245,150)"/>
<path d="M0 0 C0.33 0 0.66 0 1 0 C1 13.53 1 27.06 1 41 C-0.65 39.35 -2.3 37.7 -4 36 C-2.68 36 -1.36 36 0 36 C-0.16242188 35.11828125 -0.32484375 34.2365625 -0.4921875 33.328125 C-1.32252649 27.50108176 -1.14444602 21.6226969 -1.125 15.75 C-1.12886719 14.56664062 -1.13273438 13.38328125 -1.13671875 12.1640625 C-1.13478516 10.46636719 -1.13478516 10.46636719 -1.1328125 8.734375 C-1.13168457 7.70538086 -1.13055664 6.67638672 -1.12939453 5.61621094 C-1 3 -1 3 0 0 Z " fill="#F9CD75" transform="translate(243,132)"/>
<path d="M0 0 C3.45588962 2.26420355 4.92653163 4.46742425 7 8 C8.86460623 10.32768426 10.75414366 12.62993533 12.671875 14.9140625 C13.11015625 15.60242188 13.5484375 16.29078125 14 17 C13.67 17.99 13.34 18.98 13 20 C9.63853452 15.59192439 6.34530012 11.13735536 3.125 6.625 C2.52945313 5.79226562 1.93390625 4.95953125 1.3203125 4.1015625 C0 2 0 2 0 0 Z " fill="#91805C" transform="translate(219,143)"/>
<path d="M0 0 C1.79158489 -0.02696365 3.58328473 -0.04637917 5.375 -0.0625 C6.37273437 -0.07410156 7.37046875 -0.08570313 8.3984375 -0.09765625 C11 0 11 0 13 1 C13.33 1.99 13.66 2.98 14 4 C14.66 4.33 15.32 4.66 16 5 C16.625 7.0625 16.625 7.0625 17 9 C14.24542282 8.62005832 13.17979426 8.1926367 11.25 6.125 C10 4 10 4 10 1 C6.7 1 3.4 1 0 1 C0 0.67 0 0.34 0 0 Z " fill="#F2E8C8" transform="translate(203,133)"/>
<path d="M0 0 C1.37562854 1.28965176 2.70766393 2.62689293 4 4 C4 4.66 4 5.32 4 6 C4.66 6 5.32 6 6 6 C7.49524178 8.2727675 8.78399715 10.5679943 10 13 C9.34 13.66 8.68 14.32 8 15 C7.16094435 13.87926138 6.32892169 12.75325453 5.5 11.625 C4.80390625 10.68527344 4.80390625 10.68527344 4.09375 9.7265625 C3 8 3 8 3 6 C2.34 6 1.68 6 1 6 C0.67 4.02 0.34 2.04 0 0 Z " fill="#E7E0C7" transform="translate(233,160)"/>
<path d="M0 0 C0.66 0 1.32 0 2 0 C2.268125 0.598125 2.53625 1.19625 2.8125 1.8125 C3.86353037 4.03012126 3.86353037 4.03012126 5.5625 5.4375 C7.45263121 7.49199044 7.6324247 9.27994277 8 12 C4.60285428 9.77428384 2.98154515 7.51273914 1 4 C0.34 3.34 -0.32 2.68 -1 2 C-0.67 1.34 -0.34 0.68 0 0 Z " fill="#E8CD93" transform="translate(219,140)"/>
</svg>
